<svg width="13" height="5" viewBox="0 0 13 5" fill="none" xmlns="http://www.w3.org/2000/svg">
<path d="M2.5 5H1.25V1.25H0V0H2.5V5ZM7.91667 3.75H5.41667V2.91667H7.08333C7.54167 2.91667 7.91667 2.54167 7.91667 2.08333V0.833333C7.91667 0.375 7.54167 0 7.08333 0H4.16667V1.25H6.66667V2.08333H5C4.54167 2.08333 4.16667 2.45833 4.16667 2.91667V5H7.91667V3.75ZM12.9167 4.16667V0.833333C12.9167 0.375 12.5417 0 12.0833 0H9.16667V1.25H11.6667V2.08333H10V2.91667H11.6667V3.75H9.16667V5H12.0833C12.5417 5 12.9167 4.625 12.9167 4.16667Z" fill="#717680"/>
</svg>
