<svg width="19" height="19" viewBox="0 0 19 19" fill="none" xmlns="http://www.w3.org/2000/svg">
<path d="M13.335 1.52532C13.5538 1.30645 13.8137 1.13283 14.0996 1.01438C14.3856 0.895927 14.6921 0.834961 15.0016 0.834961C15.3112 0.834961 15.6177 0.895927 15.9036 1.01438C16.1896 1.13283 16.4494 1.30645 16.6683 1.52532C16.8872 1.74419 17.0608 2.00402 17.1792 2.28999C17.2977 2.57596 17.3587 2.88245 17.3587 3.19198C17.3587 3.50151 17.2977 3.80801 17.1792 4.09398C17.0608 4.37994 16.8872 4.63978 16.6683 4.85865L5.41829 16.1086L0.834961 17.3586L2.08496 12.7753L13.335 1.52532Z" stroke="#535862" stroke-width="1.67" stroke-linecap="round" stroke-linejoin="round"/>
</svg>
